<svg width="3000px" height="2214px" viewBox="0 0 3000 2214" version="1.1" xmlns="http://www.w3.org/2000/svg">
    <g stroke="none" stroke-width="1" fill="none" fill-rule="evenodd">
      <rect fill="#FFFFFF" x="0" y="0" width="3000" height="2214"></rect>
      <g transform="translate(-43.000000, 0.000000)">
        <rect fill="#FFFFFF" x="43" y="0" width="3000" height="2214"></rect>
        <polygon fill="#EEF9FF" points="2723.41628 0 1531.3609 1189.50188 1299 959.200647 43 2214.86731 43 0.200646668"></polygon>
        <g transform="translate(1457.355497, 1125.393467) rotate(-18.000000) translate(-1457.355497, -1125.393467) translate(118.855497, 528.893467)">
          <polygon fill="#93F0FE" points="2616.45831 0.339180419 2130.35894 247.969575 2078.66403 404.136525 2565.78513 156.964623"></polygon>
          <polygon fill="#00C5E3" points="2435.87296 59.37953 2221.64226 168.508289 2195.34269 252.599257 2519.28651 86.7861278"></polygon>
          <polygon fill="#93F0FE" points="1984.88324 319.581433 1898.05011 363.132699 1886.20173 400.163551 2021.79242 331.46961"></polygon>
          <g id="Clip-26"></g>
          <polygon fill="#00C5E3" points="2027.21739 618.021679 2076.13169 593.629728 2083.83709 571.496366 2004.88835 611.232787"></polygon>
          <polygon fill="#00C5E3" points="1887.52118 1192.02887 1949.59217 1160.47255 1959.23391 1132.77713 1859.65857 1183.29495"></polygon>
          <polygon fill="#00C5E3" points="533.005488 994.029454 596.978596 963.091166 606.620335 935.395753 508.305069 985.27153"></polygon>
          <polygon fill="#FF4F64" points="1819.90302 572.091904 2114.71999 432.629744 2161.98343 287.104223 1687.94425 528.486811"></polygon>
          <polygon fill="#00C5E3" points="2473.29574 229.616919 1952.30629 494.964297 2137.11339 554.528401 2413.47851 414.002843"></polygon>
          <polygon fill="#93F0FE" points="2068.56899 489.373316 1907.42699 571.725312 1886.04012 635.491552 2131.41999 510.456509"></polygon>
          <polygon fill="#93F0FE" points="2058.36303 1006.09955 1939.95164 1067.15005 1923.16495 1118.20318 2108.171 1023.52859"></polygon>
          <polygon fill="#93F0FE" points="888.820487 505.482957 774.454826 563.748095 759.301594 613.09247 937.870433 521.587553"></polygon>
          <polygon fill="#93F0FE" points="157.833414 1030 20.6775324 1096.02724 1.8189894e-12 1155.102 216.925867 1050.67791"></polygon>
          <polygon fill="#FF4F64" points="703.171446 705.528724 758.048397 677.970418 765.306647 655.344974 680.744856 698.00738"></polygon>
          <polygon fill="#93F0FE" points="2400.00026 388.416642 2644.88963 264.523794 2676.00136 168.719563 2294.89212 353.666959"></polygon>
        </g>
      </g>
    </g>
</svg>
