<svg width="51px" height="55px" viewBox="0 0 51 55" version="1.1" xmlns="http://www.w3.org/2000/svg">
  <g stroke="none" stroke-width="1" fill="none" fill-rule="evenodd">
    <g transform="translate(-355.000000, -522.000000)" fill-rule="nonzero">
      <g transform="translate(355.000000, 522.000000)">
        <path d="M37.1493803,16.5582065 C38.2540045,19.0715422 38.8142263,21.7395264 38.8142263,24.4979436 C38.8142263,35.4616576 29.8967887,44.3794193 18.9327506,44.3794193 C17.4136598,44.3794193 15.9015882,44.2047728 14.4246019,43.8596918 C17.8248953,49.523133 23.8894098,52.9878049 30.5430712,52.9878049 C40.9167023,52.9878049 49.359439,44.5450681 49.359439,34.171437 C49.359439,26.3613269 44.3924976,19.2833786 37.1493803,16.5582065 Z M36.8382479,13.287818 C36.8386032,13.2879254 36.8389585,13.2880328 36.8393138,13.2881403 L36.8371818,13.2874969 C36.8375372,13.2876039 36.8378926,13.2877108 36.838248,13.2878178 Z" stroke="#9AA7B4" stroke-width="3"></path>
        <path d="M1.24405659,2.48780488 L11.0273493,2.48780488 L0.288739518,15.3733902 C-0.0209921896,15.7453171 -0.0869190189,16.2615366 0.117080981,16.6969024 C0.322324884,17.1347561 0.761422445,17.4133902 1.24405659,17.4133902 L13.683081,17.4133902 C14.3697151,17.4133902 14.9269834,16.8573659 14.9269834,16.1694878 C14.9269834,15.4816098 14.3697151,14.9255854 13.683081,14.9255854 L3.8997883,14.9255854 L14.6383981,2.04 C14.9481298,1.66931707 15.0140566,1.15309756 14.8100566,0.716487805 C14.6048127,0.279878049 14.1657151,0 13.683081,0 L1.24405659,0 C0.557422445,0 0.000154151827,0.557268293 0.000154151827,1.24390244 C0.000154151827,1.93053659 0.557422445,2.48780488 1.24405659,2.48780488 Z" fill="#9AA7B4"></path>
        <path d="M27.122474,23.6341463 C27.122474,22.9475122 26.5652057,22.3902439 25.8785715,22.3902439 L20.9029618,22.3902439 L26.8736935,14.4292683 C27.1573032,14.0523659 27.2020837,13.5485854 26.9918642,13.1269024 C26.7816447,12.7052195 26.3500105,12.4390244 25.8785715,12.4390244 L18.4151569,12.4390244 C17.7285227,12.4390244 17.1712544,12.9962927 17.1712544,13.6829268 C17.1712544,14.369561 17.7285227,14.9268293 18.4151569,14.9268293 L23.3907666,14.9268293 L17.4200349,22.8878049 C17.1364252,23.2647073 17.0916447,23.7684878 17.3018642,24.1901707 C17.5120837,24.6118537 17.9437179,24.8780488 18.4151569,24.8780488 L25.8785715,24.8780488 C26.5664496,24.8780488 27.122474,24.3207805 27.122474,23.6341463 Z" fill="#9AA7B4"></path>
        <path d="M6.21988789,25.8780488 L8.87064399,25.8780488 L5.18496106,31.4071951 C4.92996106,31.7890732 4.90632691,32.2791707 5.12276594,32.683439 C5.33920496,33.0877073 5.76088789,33.3402195 6.21988789,33.3402195 L11.1954976,33.3402195 C11.8821318,33.3402195 12.4394001,32.7829512 12.4394001,32.0963171 C12.4394001,31.4096829 11.8821318,30.8524146 11.1954976,30.8524146 L8.54474155,30.8524146 L12.2304245,25.3232683 C12.4854245,24.9413902 12.5090586,24.4512927 12.2926196,24.0470244 C12.0761806,23.6427561 11.6544976,23.3902439 11.1954976,23.3902439 L6.21988789,23.3902439 C5.53325374,23.3902439 4.97598545,23.9475122 4.97598545,24.6341463 C4.97598545,25.3207805 5.53325374,25.8780488 6.21988789,25.8780488 Z" fill="#9AA7B4"></path>
      </g>
    </g>
  </g>
</svg>
