<svg width="17px" height="17px" viewBox="0 0 17 17" version="1.1" xmlns="http://www.w3.org/2000/svg">
  <path stroke-width="1" fill="#9AA7B4" fill-rule="nonzero" d="M14.7773063,9.31674876 C14.7773063,9.06265561 14.862004,8.80856246 14.862004,8.4697716 C14.862004,8.13098074 14.862004,7.87688759 14.7773063,7.62279444 L16.5559583,6.18293327 C16.7253537,6.01353784 16.7253537,5.8441424 16.640656,5.67474697 L14.9467017,2.71032691 C14.862004,2.6256292 14.6926086,2.54093148 14.4385154,2.6256292 L12.3210725,3.47260636 C11.8975839,3.13381549 11.3893976,2.87972234 10.8812113,2.6256292 L10.5424205,0.42348858 C10.6271182,0.169395432 10.373025,0 10.2036296,0 L6.81572097,0 C6.64632554,0 6.39223239,0.169395432 6.39223239,0.338790864 L6.05344153,2.6256292 C5.54525523,2.79502463 5.12176665,3.13381549 4.61358036,3.47260636 L2.58083517,2.6256292 C2.32674202,2.54093148 2.15734659,2.6256292 1.98795116,2.79502463 L0.29399684,5.75944469 C0.209299124,5.8441424 0.29399684,6.09823555 0.463392272,6.26763098 L2.24204431,7.62279444 C2.24204431,7.87688759 2.15734659,8.13098074 2.15734659,8.4697716 C2.15734659,8.80856246 2.15734659,9.06265561 2.24204431,9.31674876 L0.463392272,10.7566099 C0.29399684,10.9260054 0.29399684,11.0954008 0.378694556,11.2647962 L2.07264888,14.2292163 C2.15734659,14.313914 2.32674202,14.3986117 2.58083517,14.313914 L4.69827807,13.4669368 C5.12176665,13.8057277 5.62995295,14.0598209 6.13813924,14.313914 L6.47693011,16.5160546 C6.47693011,16.6854501 6.64632554,16.8548455 6.90041869,16.8548455 L10.2883273,16.8548455 C10.4577228,16.8548455 10.7118159,16.6854501 10.7118159,16.5160546 L11.0506068,14.313914 C11.5587931,14.0598209 12.0669794,13.8057277 12.4904679,13.4669368 L14.6079108,14.313914 C14.7773063,14.3986117 15.0313994,14.313914 15.1160971,14.1445186 L16.8100515,11.1800985 C16.8947492,11.0107031 16.8947492,10.7566099 16.7253537,10.6719122 L14.7773063,9.31674876 Z M8.50967529,11.4341917 C6.90041869,11.4341917 5.54525523,10.0790282 5.54525523,8.4697716 C5.54525523,6.860515 6.90041869,5.50535154 8.50967529,5.50535154 C10.1189319,5.50535154 11.4740954,6.860515 11.4740954,8.4697716 C11.4740954,10.0790282 10.1189319,11.4341917 8.50967529,11.4341917 Z"></path>
</svg>
